<svg width="119" height="26" viewBox="0 0 119 26" fill="none" xmlns="http://www.w3.org/2000/svg">
<path d="M117.054 11.3C117.4 11.3 117.687 11.42 117.914 11.66C118.14 11.8867 118.254 12.1733 118.254 12.52V21.02C118.254 22.2467 118.02 23.22 117.554 23.94C117.1 24.6733 116.487 25.2 115.714 25.52C114.94 25.84 114.074 26 113.114 26C112.687 26 112.234 25.9667 111.754 25.9C111.274 25.8333 110.88 25.7333 110.574 25.6C110.174 25.4267 109.894 25.2067 109.734 24.94C109.587 24.6867 109.56 24.4133 109.654 24.12C109.774 23.7333 109.967 23.4667 110.234 23.32C110.5 23.1867 110.78 23.1733 111.074 23.28C111.287 23.3467 111.567 23.4467 111.914 23.58C112.26 23.7267 112.66 23.8 113.114 23.8C113.727 23.8 114.234 23.7133 114.634 23.54C115.047 23.38 115.354 23.1 115.554 22.7C115.767 22.3133 115.874 21.78 115.874 21.1V19.76L116.294 20.24C116.067 20.68 115.78 21.0467 115.434 21.34C115.1 21.62 114.7 21.8333 114.234 21.98C113.767 22.1267 113.234 22.2 112.634 22.2C111.927 22.2 111.307 22.04 110.774 21.72C110.254 21.3867 109.847 20.9333 109.554 20.36C109.26 19.7733 109.114 19.1067 109.114 18.36V12.52C109.114 12.1733 109.227 11.8867 109.454 11.66C109.68 11.42 109.967 11.3 110.314 11.3C110.66 11.3 110.947 11.42 111.174 11.66C111.4 11.8867 111.514 12.1733 111.514 12.52V17.64C111.514 18.5067 111.7 19.12 112.074 19.48C112.46 19.8267 112.994 20 113.674 20C114.14 20 114.534 19.9133 114.854 19.74C115.174 19.5533 115.42 19.2867 115.594 18.94C115.767 18.58 115.854 18.1467 115.854 17.64V12.52C115.854 12.1733 115.967 11.8867 116.194 11.66C116.42 11.42 116.707 11.3 117.054 11.3Z" fill="black"/>
<path d="M100.65 11.5H105.39C105.71 11.5 105.977 11.6067 106.19 11.82C106.403 12.0333 106.51 12.3 106.51 12.62C106.51 12.9267 106.403 13.1867 106.19 13.4C105.977 13.6 105.71 13.7 105.39 13.7H100.65C100.33 13.7 100.063 13.5933 99.85 13.38C99.6366 13.1667 99.53 12.9 99.53 12.58C99.53 12.2733 99.6366 12.02 99.85 11.82C100.063 11.6067 100.33 11.5 100.65 11.5ZM102.79 9C103.137 9 103.417 9.12 103.63 9.36C103.857 9.58667 103.97 9.87333 103.97 10.22V19.12C103.97 19.3067 104.003 19.46 104.07 19.58C104.15 19.7 104.25 19.7867 104.37 19.84C104.503 19.8933 104.643 19.92 104.79 19.92C104.95 19.92 105.097 19.8933 105.23 19.84C105.363 19.7733 105.517 19.74 105.69 19.74C105.877 19.74 106.043 19.8267 106.19 20C106.35 20.1733 106.43 20.4133 106.43 20.72C106.43 21.0933 106.223 21.4 105.81 21.64C105.41 21.88 104.977 22 104.51 22C104.23 22 103.917 21.98 103.57 21.94C103.237 21.8867 102.917 21.7733 102.61 21.6C102.317 21.4133 102.07 21.1333 101.87 20.76C101.67 20.3867 101.57 19.8733 101.57 19.22V10.22C101.57 9.87333 101.683 9.58667 101.91 9.36C102.15 9.12 102.443 9 102.79 9Z" fill="black"/>
<path d="M97.3979 20.78C97.3979 21.1267 97.2779 21.42 97.0379 21.66C96.8112 21.8867 96.5246 22 96.1779 22C95.8446 22 95.5646 21.8867 95.3379 21.66C95.1112 21.42 94.9979 21.1267 94.9979 20.78V8.42001C94.9979 8.07335 95.1112 7.78668 95.3379 7.56001C95.5779 7.32001 95.8712 7.20001 96.2179 7.20001C96.5646 7.20001 96.8446 7.32001 97.0579 7.56001C97.2846 7.78668 97.3979 8.07335 97.3979 8.42001V20.78Z" fill="black"/>
<path d="M90.5996 11.3C90.9463 11.3 91.233 11.42 91.4596 11.66C91.6863 11.8867 91.7996 12.1733 91.7996 12.52V17.6C91.7996 19.0133 91.4063 20.1333 90.6196 20.96C89.833 21.7867 88.6996 22.2 87.2196 22.2C85.7396 22.2 84.6063 21.7867 83.8196 20.96C83.0463 20.1333 82.6596 19.0133 82.6596 17.6V12.52C82.6596 12.1733 82.773 11.8867 82.9996 11.66C83.2263 11.42 83.513 11.3 83.8596 11.3C84.2063 11.3 84.493 11.42 84.7196 11.66C84.9463 11.8867 85.0596 12.1733 85.0596 12.52V17.6C85.0596 18.4133 85.2396 19.02 85.5996 19.42C85.9596 19.8067 86.4996 20 87.2196 20C87.953 20 88.4996 19.8067 88.8596 19.42C89.2196 19.02 89.3996 18.4133 89.3996 17.6V12.52C89.3996 12.1733 89.513 11.8867 89.7396 11.66C89.9663 11.42 90.253 11.3 90.5996 11.3Z" fill="black"/>
<path d="M76.629 11.1C77.389 11.1 78.049 11.18 78.609 11.34C79.1823 11.5 79.6223 11.7267 79.929 12.02C80.249 12.3 80.409 12.64 80.409 13.04C80.409 13.3067 80.329 13.56 80.169 13.8C80.009 14.0267 79.7757 14.14 79.469 14.14C79.2557 14.14 79.0757 14.1133 78.929 14.06C78.7957 13.9933 78.6757 13.9133 78.569 13.82C78.4623 13.7267 78.3357 13.64 78.189 13.56C78.0557 13.48 77.849 13.42 77.569 13.38C77.3023 13.3267 77.1023 13.3 76.969 13.3C76.289 13.3 75.709 13.4467 75.229 13.74C74.7623 14.0333 74.4023 14.4333 74.149 14.94C73.8957 15.4333 73.769 16.0067 73.769 16.66C73.769 17.3 73.8957 17.8733 74.149 18.38C74.4157 18.8733 74.7757 19.2667 75.229 19.56C75.6957 19.8533 76.229 20 76.829 20C77.1623 20 77.449 19.98 77.689 19.94C77.929 19.9 78.129 19.84 78.289 19.76C78.4757 19.6533 78.6423 19.54 78.789 19.42C78.9357 19.3 79.1557 19.24 79.449 19.24C79.7957 19.24 80.0623 19.3533 80.249 19.58C80.4357 19.7933 80.529 20.06 80.529 20.38C80.529 20.7133 80.3423 21.02 79.969 21.3C79.5957 21.5667 79.1023 21.7867 78.489 21.96C77.889 22.12 77.2357 22.2 76.529 22.2C75.4757 22.2 74.5623 21.96 73.789 21.48C73.0157 20.9867 72.4157 20.32 71.989 19.48C71.5757 18.64 71.369 17.7 71.369 16.66C71.369 15.5667 71.589 14.6067 72.029 13.78C72.4823 12.94 73.1023 12.2867 73.889 11.82C74.689 11.34 75.6023 11.1 76.629 11.1Z" fill="black"/>
<path d="M67.6704 11.1C68.0171 11.1 68.3038 11.2133 68.5304 11.44C68.7571 11.6667 68.8704 11.96 68.8704 12.32V20.78C68.8704 21.1267 68.7571 21.42 68.5304 21.66C68.3038 21.8867 68.0171 22 67.6704 22C67.3238 22 67.0371 21.8867 66.8104 21.66C66.5838 21.42 66.4704 21.1267 66.4704 20.78V19.8L66.9104 19.98C66.9104 20.1533 66.8171 20.3667 66.6304 20.62C66.4437 20.86 66.1904 21.1 65.8704 21.34C65.5504 21.58 65.1704 21.7867 64.7304 21.96C64.3038 22.12 63.8371 22.2 63.3304 22.2C62.4104 22.2 61.5771 21.9667 60.8304 21.5C60.0838 21.02 59.4904 20.3667 59.0504 19.54C58.6238 18.7 58.4104 17.74 58.4104 16.66C58.4104 15.5667 58.6238 14.6067 59.0504 13.78C59.4904 12.94 60.0771 12.2867 60.8104 11.82C61.5438 11.34 62.3571 11.1 63.2504 11.1C63.8237 11.1 64.3504 11.1867 64.8304 11.36C65.3104 11.5333 65.7238 11.7533 66.0704 12.02C66.4304 12.2867 66.7037 12.56 66.8904 12.84C67.0904 13.1067 67.1904 13.3333 67.1904 13.52L66.4704 13.78V12.32C66.4704 11.9733 66.5838 11.6867 66.8104 11.46C67.0371 11.22 67.3238 11.1 67.6704 11.1ZM63.6304 20C64.2171 20 64.7304 19.8533 65.1704 19.56C65.6104 19.2667 65.9504 18.8667 66.1904 18.36C66.4437 17.8533 66.5704 17.2867 66.5704 16.66C66.5704 16.02 66.4437 15.4467 66.1904 14.94C65.9504 14.4333 65.6104 14.0333 65.1704 13.74C64.7304 13.4467 64.2171 13.3 63.6304 13.3C63.0571 13.3 62.5504 13.4467 62.1104 13.74C61.6704 14.0333 61.3238 14.4333 61.0704 14.94C60.8304 15.4467 60.7104 16.02 60.7104 16.66C60.7104 17.2867 60.8304 17.8533 61.0704 18.36C61.3238 18.8667 61.6704 19.2667 62.1104 19.56C62.5504 19.8533 63.0571 20 63.6304 20Z" fill="black"/>
<path d="M49.1306 22C48.7572 22 48.4506 21.8867 48.2106 21.66C47.9839 21.42 47.8706 21.1267 47.8706 20.78V9.22C47.8706 8.87333 47.9839 8.58667 48.2106 8.36C48.4506 8.12 48.7439 8 49.0906 8H55.5906C55.9372 8 56.2239 8.11333 56.4506 8.34C56.6906 8.55333 56.8106 8.83333 56.8106 9.18C56.8106 9.47333 56.6906 9.73333 56.4506 9.96C56.2239 10.1867 55.9372 10.3 55.5906 10.3H50.1906L50.3706 10.06V14.08L50.2306 13.82H54.6906C55.0372 13.82 55.3239 13.9333 55.5506 14.16C55.7906 14.3733 55.9106 14.6533 55.9106 15C55.9106 15.2933 55.7906 15.5533 55.5506 15.78C55.3239 16.0067 55.0372 16.12 54.6906 16.12H50.1906L50.3706 15.94V20.78C50.3706 21.1267 50.2439 21.42 49.9906 21.66C49.7506 21.8867 49.4639 22 49.1306 22Z" fill="black"/>
<path d="M43.4723 11.3C43.8189 11.3 44.1056 11.42 44.3323 11.66C44.5589 11.8867 44.6723 12.1733 44.6723 12.52V17.6C44.6723 19.0133 44.2789 20.1333 43.4923 20.96C42.7056 21.7867 41.5723 22.2 40.0923 22.2C38.6123 22.2 37.4789 21.7867 36.6923 20.96C35.9189 20.1333 35.5323 19.0133 35.5323 17.6V12.52C35.5323 12.1733 35.6456 11.8867 35.8723 11.66C36.0989 11.42 36.3856 11.3 36.7323 11.3C37.0789 11.3 37.3656 11.42 37.5923 11.66C37.8189 11.8867 37.9323 12.1733 37.9323 12.52V17.6C37.9323 18.4133 38.1123 19.02 38.4723 19.42C38.8323 19.8067 39.3723 20 40.0923 20C40.8256 20 41.3723 19.8067 41.7323 19.42C42.0923 19.02 42.2723 18.4133 42.2723 17.6V12.52C42.2723 12.1733 42.3856 11.8867 42.6123 11.66C42.8389 11.42 43.1256 11.3 43.4723 11.3Z" fill="black"/>
<path fill-rule="evenodd" clip-rule="evenodd" d="M17.4641 2C15.9245 -0.66667 12.0755 -0.666663 10.5359 2L1.00964 18.5C-0.529962 21.1667 1.39455 24.5 4.47375 24.5H23.5263C26.6055 24.5 28.53 21.1667 26.9904 18.5L17.4641 2ZM14 19C16.2092 19 18 17.2091 18 15C18 12.7909 16.2092 11 14 11C11.7909 11 10 12.7909 10 15C10 17.2091 11.7909 19 14 19Z" fill="#5246B1"/>
</svg>
